<svg width="322" height="197" viewBox="0 0 322 197" fill="none" xmlns="http://www.w3.org/2000/svg">
<path d="M0.923957 179.606C0.153995 180.752 0.458907 182.305 1.605 183.075L20.2816 195.622C21.4277 196.392 22.981 196.087 23.7509 194.941C24.5209 193.795 24.216 192.242 23.0699 191.472L6.46846 180.319L17.6216 163.717C18.3915 162.571 18.0866 161.018 16.9405 160.248C15.7944 159.478 14.2412 159.783 13.4712 160.929L0.923957 179.606ZM316.93 0.59725C279.181 56.2916 241.9 92.593 193.53 119.056C145.083 145.561 85.3553 162.285 2.51757 178.547L3.48071 183.453C86.4181 167.172 146.777 150.333 195.93 123.442C245.16 96.5091 282.991 59.5816 321.069 3.40252L316.93 0.59725Z" fill="white"/>
</svg>
